. 
  
http://www.torrenting.com/        :     Greatest Movie Tracker on The Net!!!
 
http://www.Torrenting.com          :     Once & For all ;)


               www . Torrenting . Com 

(((((((((((((= Enjoy No RAR releases =))))))))))))))))))))


...................................NFO:....................................

.








































          
          
              
              
                    
                    
                    
                    

Hombre.1967.HDTVRip.Xvid.AC3-SiC

Poster:
[img]http://img27.imageshack.us/img27/3066/114426032.jpg[/img]

IMDB Link:
http://www.imdb.com/title/tt0061770/

Description:
John Russell, disdained by his "respectable" fellow stagecoach passengers 
because he was raised by Indians, becomes their only hope for survival when 
they are set upon by outlaws.

MediaInfo:
General
Complete name                    : Hombre.1967.HDTVRip.Xvid.AC3-SiC.avi
Format                           : AVI
Format/Info                      : Audio Video Interleave
File size                        : 1.29 GiB
Duration                         : 1h 50mn
Overall bit rate                 : 1 673 Kbps

Video
ID                               : 0
Format                           : MPEG-4 Visual
Format profile                   : Advanced Simple@L5
Format settings, BVOP            : Yes
Format settings, QPel            : No
Format settings, GMC             : No warppoints
Format settings, Matrix          : Default (H.263)
Muxing mode                      : Packed bitstream
Codec ID                         : XVID
Codec ID/Hint                    : XviD
Duration                         : 1h 50mn
Bit rate                         : 1 282 Kbps
Width                            : 720 pixels
Height                           : 304 pixels
Display aspect ratio             : 2.35:1
Frame rate                       : 23.976 fps
Resolution                       : 8 bits
Colorimetry                      : 4:2:0
Scan type                        : Progressive
Bits/(Pixel*Frame)               : 0.244
Stream size                      : 1 015 MiB (77%)
Writing library                  : XviD 64

Audio
ID                               : 1
Format                           : AC-3
Format/Info                      : Audio Coding 3
Format_Settings_ModeExtension    : CM (complete main)
Codec ID                         : 2000
Duration                         : 1h 50mn
Bit rate mode                    : Constant
Bit rate                         : 384 Kbps
Channel(s)                       : 6 channels
Channel positions                : Front: L C R, Side: L R, LFE
Sampling rate                    : 48.0 KHz
Stream size                      : 304 MiB (23%)
Alignment                        : Aligned on interleaves
Interleave, duration             : 64 ms (1.53 video frames)
Interleave, preload duration     : 192 ms
Title                            : 6ch English

Screenshots:
[img]http://img690.imageshack.us/img690/5681/hombre1967brripxvidac3s.png[/img]
[img]http://img851.imageshack.us/img851/5681/hombre1967brripxvidac3s.png[/img]
[img]http://img9.imageshack.us/img9/5681/hombre1967brripxvidac3s.png[/img]
[img]http://img804.imageshack.us/img804/5681/hombre1967brripxvidac3s.png[/img]
[img]http://img707.imageshack.us/img707/5681/hombre1967brripxvidac3s.png[/img]

Note :   N/A 

Source : HDTV-DON Thanks!!!

Encoder: Bezauk

Enjoy!

Respects to CaptainHomey, Cyanide, CM8, Rx, THC, ELEKTRI4KA, 
Killerhz, PA, YeFsTe, BoxSlots, MrRep and everyone in the struggle...